<svg xmlns="http://www.w3.org/2000/svg" width="19.688" height="19.679" viewBox="0 0 19.688 19.679">
    <path data-name="Union 21" d="m585.29-391.448-.29-.291v-.254c.107-.4.221-.8.321-1.2.271-1.076.534-2.155.808-3.229a.688.688 0 0 1 .175-.306q5.018-5.029 10.043-10.049c.034-.034.07-.066.09-.084l3.973 3.972-.1.112q-5 5-10 9.991a.839.839 0 0 1-.366.211c-1.443.368-2.889.726-4.334 1.087a.7.7 0 0 0-.1.039zm12.359-16.575c.488-.5.959-1.039 1.489-1.513a2 2 0 0 1 2.57.008 16.871 16.871 0 0 1 1.383 1.383 1.945 1.945 0 0 1-.007 2.572c-.475.521-1 .993-1.5 1.48z" transform="translate(-584.5 410.627)" style="fill:#1a577a;stroke:transparent;stroke-miterlimit:10"/>
</svg>
