<svg xmlns="http://www.w3.org/2000/svg" width="18.8" height="19.148" viewBox="0 0 18.8 19.148">
    <g data-name="Group 144">
        <path data-name="Path 35269" d="M784.781 343a1.867 1.867 0 0 1 .428.27.707.707 0 0 1-.014.949q-1.175 1.659-2.353 3.316-1.564 2.2-3.131 4.4a2 2 0 0 0-.388 1.217c.007 1.652 0 3.3 0 4.955a.711.711 0 0 1-.552.807c-1 .382-2 .761-3 1.146a.745.745 0 0 1-.84-.123.809.809 0 0 1-.226-.642v-5.541c0-.218-.006-.435 0-.653a1.815 1.815 0 0 0-.365-1.139q-2.751-3.864-5.494-7.734a.72.72 0 0 1-.022-.965 1.92 1.92 0 0 1 .41-.268z" transform="translate(-767.621 -342)" style="fill:none;stroke:#fff;stroke-width:2px"/>
    </g>
</svg>
